
<svg width="0" height="0" class="hidden">
  <symbol xmlns="http://www.w3.org/2000/svg" viewBox="0 0 512 512" id="briefcase-outline">
    <rect x="32" y="128" width="448" height="320" rx="48" ry="48" fill="none" stroke="currentColor" stroke-linejoin="round" stroke-width="32"></rect>
    <path d="M144 128V96a32 32 0 0 1 32-32h160a32 32 0 0 1 32 32v32m112 112H32m288 0v24a8 8 0 0 1-8 8H200a8 8 0 0 1-8-8v-24" fill="none" stroke="currentColor" stroke-linecap="round" stroke-linejoin="round" stroke-width="32"></path>
  </symbol>
  <symbol xmlns="http://www.w3.org/2000/svg" viewBox="0 0 512 512" id="document-outline">
    <path d="M416 221.25V416a48 48 0 0 1-48 48H144a48 48 0 0 1-48-48V96a48 48 0 0 1 48-48h98.75a32 32 0 0 1 22.62 9.37l141.26 141.26a32 32 0 0 1 9.37 22.62z" fill="none" stroke="currentColor" stroke-linejoin="round" stroke-width="32"></path>
    <path d="M256 56v120a32 32 0 0 0 32 32h120" fill="none" stroke="currentColor" stroke-linecap="round" stroke-linejoin="round" stroke-width="32"></path>
  </symbol>
  <symbol xmlns="http://www.w3.org/2000/svg" viewBox="0 0 512 512" id="person-circle">
    <path d="M256 48C141.31 48 48 141.31 48 256s93.31 208 208 208 208-93.31 208-208S370.69 48 256 48zm-50.22 116.82C218.45 151.39 236.28 144 256 144s37.39 7.44 50.11 20.94c12.89 13.68 19.16 32.06 17.68 51.82C320.83 256 290.43 288 256 288s-64.89-32-67.79-71.25c-1.47-19.92 4.79-38.36 17.57-51.93zM256 432a175.49 175.49 0 0 1-126-53.22 122.91 122.91 0 0 1 35.14-33.44C190.63 329 222.89 320 256 320s65.37 9 90.83 25.34A122.87 122.87 0 0 1 382 378.78 175.45 175.45 0 0 1 256 432z"></path>
  </symbol>
  <symbol xmlns="http://www.w3.org/2000/svg" viewBox="0 0 512 512" id="search-outline">
    <path d="M221.09 64a157.09 157.09 0 1 0 157.09 157.09A157.1 157.1 0 0 0 221.09 64z" fill="none" stroke="currentColor" stroke-miterlimit="10" stroke-width="32"></path>
    <path fill="none" stroke="currentColor" stroke-linecap="round" stroke-miterlimit="10" stroke-width="32" d="M338.29 338.29L448 448"></path>
  </symbol>
  <symbol xmlns="http://www.w3.org/2000/svg" viewBox="0 0 512 512" id="shuffle-outline">
    <path fill="none" stroke="currentColor" stroke-linecap="round" stroke-linejoin="round" stroke-width="32" d="M400 304l48 48-48 48m0-288l48 48-48 48M64 352h85.19a80 80 0 0 0 66.56-35.62L256 256"></path>
    <path d="M64 160h85.19a80 80 0 0 1 66.56 35.62l80.5 120.76A80 80 0 0 0 362.81 352H416m0-192h-53.19a80 80 0 0 0-66.56 35.62L288 208" fill="none" stroke="currentColor" stroke-linecap="round" stroke-linejoin="round" stroke-width="32"></path>
  </symbol>
</svg>
