<svg width="0" height="0" class="hidden">
  <symbol xmlns="http://www.w3.org/2000/svg" viewBox="0 0 512 512" id="briefcase-outline">
    <rect x="32" y="128" width="448" height="320" rx="48" ry="48" fill="none" stroke="currentColor" stroke-linejoin="round" stroke-width="32"></rect>
    <path d="M144 128V96a32 32 0 0 1 32-32h160a32 32 0 0 1 32 32v32m112 112H32m288 0v24a8 8 0 0 1-8 8H200a8 8 0 0 1-8-8v-24" fill="none" stroke="currentColor" stroke-linecap="round" stroke-linejoin="round" stroke-width="32"></path>
  </symbol>
  <symbol xmlns="http://www.w3.org/2000/svg" viewBox="0 0 512 512" id="document-outline">
    <path d="M416 221.25V416a48 48 0 0 1-48 48H144a48 48 0 0 1-48-48V96a48 48 0 0 1 48-48h98.75a32 32 0 0 1 22.62 9.37l141.26 141.26a32 32 0 0 1 9.37 22.62z" fill="none" stroke="currentColor" stroke-linejoin="round" stroke-width="32"></path>
    <path d="M256 56v120a32 32 0 0 0 32 32h120" fill="none" stroke="currentColor" stroke-linecap="round" stroke-linejoin="round" stroke-width="32"></path>
  </symbol>
  <symbol xmlns="http://www.w3.org/2000/svg" viewBox="0 0 512 512" id="person-circle">
    <path d="M256 48C141.31 48 48 141.31 48 256s93.31 208 208 208 208-93.31 208-208S370.69 48 256 48zm-50.22 116.82C218.45 151.39 236.28 144 256 144s37.39 7.44 50.11 20.94c12.89 13.68 19.16 32.06 17.68 51.82C320.83 256 290.43 288 256 288s-64.89-32-67.79-71.25c-1.47-19.92 4.79-38.36 17.57-51.93zM256 432a175.49 175.49 0 0 1-126-53.22 122.91 122.91 0 0 1 35.14-33.44C190.63 329 222.89 320 256 320s65.37 9 90.83 25.34A122.87 122.87 0 0 1 382 378.78 175.45 175.45 0 0 1 256 432z"></path>
  </symbol>
  <symbol xmlns="http://www.w3.org/2000/svg" viewBox="0 0 512 512" id="search-outline">
    <path d="M221.09 64a157.09 157.09 0 1 0 157.09 157.09A157.1 157.1 0 0 0 221.09 64z" fill="none" stroke="currentColor" stroke-miterlimit="10" stroke-width="32"></path>
    <path fill="none" stroke="currentColor" stroke-linecap="round" stroke-miterlimit="10" stroke-width="32" d="M338.29 338.29L448 448"></path>
  </symbol>
  <symbol xmlns="http://www.w3.org/2000/svg" viewBox="0 0 512 512" id="shuffle-outline">
    <path fill="none" stroke="currentColor" stroke-linecap="round" stroke-linejoin="round" stroke-width="32" d="M400 304l48 48-48 48m0-288l48 48-48 48M64 352h85.19a80 80 0 0 0 66.56-35.62L256 256"></path>
    <path d="M64 160h85.19a80 80 0 0 1 66.56 35.62l80.5 120.76A80 80 0 0 0 362.81 352H416m0-192h-53.19a80 80 0 0 0-66.56 35.62L288 208" fill="none" stroke="currentColor" stroke-linecap="round" stroke-linejoin="round" stroke-width="32"></path>
  </symbol>
  <symbol xmlns="http://www.w3.org/2000/svg" viewBox="0 0 100 100" id="heart">
    <path fill="currentColor" d="M48.6 85.4 15.7 52.8c-1.4-1.3-2.5-2.8-3.5-4.4-5.4-8.9-4-20.3 3.5-27.7C20 16.4 25.8 14 31.9 14c9.6 0 15.6 5.6 18.1 8.8 2.5-3.2 8.5-8.8 18.1-8.8 6.1 0 11.9 2.4 16.2 6.7 7.4 7.4 8.9 18.8 3.5 27.7-1 1.6-2.1 3.1-3.5 4.4L51.4 85.4c-.8.8-2 .8-2.8 0zM31.9 18c-5.1 0-9.8 2-13.4 5.5-6.1 6.1-7.3 15.5-2.9 22.8.8 1.3 1.8 2.6 2.9 3.7L50 81.2 81.5 50c1.1-1.1 2.1-2.3 2.9-3.7 4.4-7.4 3.3-16.8-2.9-22.8C77.9 20 73.1 18 68.1 18c-7.2 0-13.2 3.9-16.4 9.3-.8 1.3-2.7 1.3-3.5 0-3.1-5.4-9.1-9.3-16.3-9.3z"/>
    <path fill="#00F" d="M944-370v1684H-840V-370H944m8-8H-848v1700H952V-378z"/>
  </svg>
  <symbol xmlns="http://www.w3.org/2000/svg" viewBox="0 0 16 16" id="heart-fill">
    <path fill="#f05542" d="M5.301 3.002c-.889-.047-1.759.247-2.404.893-1.29 1.292-1.175 3.49.26 4.926l.515.515L8.332 14l4.659-4.664.515-.515c1.435-1.437 1.55-3.634.26-4.926-1.29-1.292-3.483-1.175-4.918.262l-.516.517-.517-.517C7.098 3.438 6.19 3.049 5.3 3.002z"/>
  </symbol>
</svg>
